<svg width="24" height="24" viewBox="0 0 24 24" fill="none" xmlns="http://www.w3.org/2000/svg">
<path d="M11.7093 18.6122H24.0065V20.0816H11.7093V18.6122ZM5.71004 19.3469L3.44384 21.2424L4.68234 22.2857L8.19582 19.3469L4.68234 16.4082L3.43506 17.4441L5.71004 19.3469ZM11.7093 11.2653H24.0065V12.7347H11.7093V11.2653ZM5.71004 12L3.44384 13.8955L4.68234 14.9388L8.19582 12L4.68234 9.06122L3.43506 10.0971L5.71004 12ZM11.7093 3.91837H24.0065V5.38776H11.7093V3.91837ZM5.71004 4.65306L3.44384 6.54857L4.68234 7.59184L8.19582 4.65306L4.68234 1.71429L3.43506 2.7502L5.71004 4.65306Z" fill="black"/>
</svg>
